<?xml version="1.0" encoding="UTF-8" standalone="no"?>
<!-- Created with Inkscape (http://www.inkscape.org/) -->

<svg
   xmlns:dc="http://purl.org/dc/elements/1.1/"
   xmlns:cc="http://creativecommons.org/ns#"
   xmlns:rdf="http://www.w3.org/1999/02/22-rdf-syntax-ns#"
   xmlns:svg="http://www.w3.org/2000/svg"
   xmlns="http://www.w3.org/2000/svg"
   xmlns:sodipodi="http://sodipodi.sourceforge.net/DTD/sodipodi-0.dtd"
   xmlns:inkscape="http://www.inkscape.org/namespaces/inkscape"
   width="113mm"
   height="113mm"
   viewBox="0 0 113 113"
   version="1.1"
   id="svg8"
   inkscape:version="0.92.4 (f8dce91, 2019-08-02)"
   sodipodi:docname="modified-cross-4.svg">
  <g
     inkscape:label="Layer 1"
     inkscape:groupmode="layer"
     id="layer1"
     transform="translate(0,-184)">
    <path
       style="opacity:0.90980392;fill:#000000;stroke:#000000;stroke-width:0.28369826"
       d="m 35.349309,257.51211 6.411523,0.2646 v 0 l 32.057619,0.26458 v 0 l 6.411523,-1e-5 v 0 l 25.646096,0.92604 -1.21819,0.26459 6.41152,1.05833 -1.53877,0.26458 0.76939,0.39688 1.15408,0.79375 -0.64116,0.13229 1.79523,0.52917 -32.057619,1.98437 v 0 h -6.411523 v 0 l -32.057619,1.05833 v 0 l -6.411525,-0.64543 v 0 c -12.823046,0.44097 -19.234571,-0.19241 -32.0576174,-1.60352 l 2.7569551,-0.26459 -5.51391078,-0.79375 2.75695568,-0.26458 -3.33399275,-0.52917 1.79522705,-0.52916 -1.21818998,-0.26459 0.76938298,-0.13229 v -0.52917 l 0.7693833,-0.52916 -0.8976138,-0.13229 3.2057619,-0.66146 -0.1282308,-0.39688 z"
       id="path923"
       inkscape:connector-curvature="0"
       sodipodi:nodetypes="cccccccccccccccccccccccccccccccccccccc" />
    <path
       style="opacity:0.90980392;fill:#000000;stroke:#000000;stroke-width:0.2646243"
       d="m 80.586628,223.38079 -7.939289,-0.2646 v 0 L 39.82515,222.85161 v 0 l -7.93929,1e-5 v 0 l -23.2890814,-0.92604 1.0586217,-0.26459 -7.9392902,-1.05833 1.3233887,-0.26458 -0.6614336,-0.39688 -0.9262754,-0.79375 0.5293853,-0.13229 -1.58793249,-0.52917 31.49649039,-1.98437 v 0 h 7.93929 v 0 l 33.082858,-1.05833 v 0 l 7.678619,0.64543 v 0 c 10.568343,-0.44097 20.27275,0.19241 29.11321,1.60352 l -2.38201,0.26459 4.76403,0.79375 -2.38202,0.26458 2.91133,0.52917 -1.58801,0.52916 1.0587,0.26459 -0.66173,0.13229 v 0.52917 l -0.66167,0.52916 0.79401,0.13229 -2.77898,0.66146 0.13235,0.39688 z"
       id="path923-3"
       inkscape:connector-curvature="0"
       sodipodi:nodetypes="cccccccccccccccccccccccccccccccccccccc"
       inkscape:transform-center-x="-19.851991"
       inkscape:transform-center-y="-3.0237464" />
    <path
       style="opacity:0.90980392;fill:#000000;stroke:#000000;stroke-width:0.28127152"
       d="m 73.168803,208.17372 -5e-6,5.77441 v 0 l 0.79375,40.42089 v 0 l -5e-6,5.77441 c 0.04025,0 -0.04027,0 0,0 l 0.264583,2.25203 -0.264583,17.32323 0.264583,11.54883 0.529167,4.50405 0.79375,-1.09713 h 0.264583 l 0.529167,1.03938 0.132292,0.86617 0.264583,-3.34917 0.529167,3.34917 0.529166,-4.50405 0.79375,4.50405 0.396875,-4.50405 h 0.264584 l 0.529166,2.25202 0.396875,2.25203 0.529167,-3.34917 1.058333,3.34917 0.132292,-28.87207 v 0 l -0.264583,-5.77441 v 0 l -0.529167,-40.4209 v 0 l 1e-5,-5.77441 v 0 l -0.79375,-28.87206 -0.396875,0.11549 -0.264583,-1.09714 -0.264583,1.09714 -0.529167,-2.25202 -0.396875,2.25202 h -0.264583 l -0.529167,-1.09714 -0.396875,2.25202 -0.529167,-2.25202 -0.396875,3.34916 H 76.07922 l -0.529167,-3.34916 -0.529166,-0.34646 0.264583,0.9239 -0.396875,2.30978 -0.132292,-2.30978 H 74.49172 l -0.79375,0.46196 -0.396875,2.25202 -0.132292,-1.09714 -0.529166,0.28872 z"
       id="path887"
       inkscape:connector-curvature="0"
       sodipodi:nodetypes="cccccccccccccccccccccccccccccccccccccccccccccccccccccccc" />
    <path
       style="opacity:0.90980392;fill:#000000;stroke:#000000;stroke-width:0.26937678"
       d="m 41.154232,259.61333 v -6.59998 0 l -0.79375,-34.37492 v 0 l 1e-5,-6.87499 c -0.0403,0 0.0403,0 0,0 l -0.26458,-2.13124 0.26458,-13.74997 -0.26458,-6.87498 -0.52917,-4.19374 -0.79375,1.23749 h -0.26458 l -0.52917,-1.03125 -0.13229,-0.75624 -0.26458,3.02499 -0.52917,-2.75 -0.52917,3.85 -0.79375,-3.85 -0.39687,3.9875 h -0.26459 l -0.52916,-1.85625 -0.39688,-1.78749 -0.52917,3.02499 -1.05833,-3.3 -0.13229,34.37493 v 0 l 0.26458,6.87498 v 0 l 0.52917,34.37492 v 0 l -1e-5,6.59999 v 0 l 0.79375,27.49993 0.39688,-0.1375 0.26458,1.1 0.26458,-1.30625 0.52917,2.0625 0.39687,-1.85625 h 0.26459 l 0.52916,1.30625 0.39688,-2.54375 0.52917,2.54375 0.39687,-2.6125 h 0.26458 l 0.52917,3.575 0.52917,0.275 -0.26459,-0.75625 0.39688,-1.85624 0.13229,1.85624 h 0.26458 l 0.79375,-0.55 0.39688,-1.78749 0.13229,1.51249 0.52917,-0.20625 z"
       id="path887-6"
       inkscape:connector-curvature="0"
       sodipodi:nodetypes="cccccccccccccccccccccccccccccccccccccccccccccccccccccccc" />
  </g>
</svg>
