<?xml version="1.0" encoding="UTF-8" standalone="no"?>
<!-- Created with Inkscape (http://www.inkscape.org/) -->

<svg
   xmlns:dc="http://purl.org/dc/elements/1.1/"
   xmlns:cc="http://creativecommons.org/ns#"
   xmlns:rdf="http://www.w3.org/1999/02/22-rdf-syntax-ns#"
   xmlns:svg="http://www.w3.org/2000/svg"
   xmlns="http://www.w3.org/2000/svg"
   xmlns:sodipodi="http://sodipodi.sourceforge.net/DTD/sodipodi-0.dtd"
   xmlns:inkscape="http://www.inkscape.org/namespaces/inkscape"
   width="28mm"
   height="28mm"
   viewBox="0 0 28 28"
   version="1.1"
   id="svg8"
   inkscape:version="0.92.4 (f8dce91, 2019-08-02)"
   sodipodi:docname="o-icon.svg">
  <defs
     id="defs2" />
  <sodipodi:namedview
     id="base"
     pagecolor="#ffffff"
     bordercolor="#666666"
     borderopacity="1.0"
     inkscape:pageopacity="0.0"
     inkscape:pageshadow="2"
     inkscape:zoom="1.979899"
     inkscape:cx="42.841143"
     inkscape:cy="19.926513"
     inkscape:document-units="mm"
     inkscape:current-layer="layer1"
     showgrid="false"
     inkscape:window-width="1850"
     inkscape:window-height="1016"
     inkscape:window-x="70"
     inkscape:window-y="27"
     inkscape:window-maximized="1" />
  <metadata
     id="metadata5">
    <rdf:RDF>
      <cc:Work
         rdf:about="">
        <dc:format>image/svg+xml</dc:format>
        <dc:type
           rdf:resource="http://purl.org/dc/dcmitype/StillImage" />
        <dc:title></dc:title>
      </cc:Work>
    </rdf:RDF>
  </metadata>
  <g
     inkscape:label="Layer 1"
     inkscape:groupmode="layer"
     id="layer1"
     transform="translate(0,-269)">
    <path
       style="fill:#c33c54;fill-opacity:1;stroke-width:0.26458332"
       d="m 8.5379641,296.24363 c -0.261937,-0.0373 -0.631031,-0.1052 -0.820208,-0.15089 -0.426143,-0.10292 -1.330335,-0.43934 -1.613958,-0.60042 -0.116417,-0.0662 -0.271198,-0.14933 -0.343959,-0.18481 -0.344953,-0.16833 -1.20615,-0.87786 -1.8520829,-1.52596 -2.1371085,-2.14415 -3.22921322,-4.72159 -3.22748282,-7.61702 0.00185,-2.89452 1.02988002,-5.68278 3.08995232,-8.37968 0.4308052,-0.56402 0.6526689,-0.81615 1.4604474,-1.66001 2.056363,-2.14813 5.2167369,-4.01324 8.0433339,-4.74687 0.101864,-0.0264 0.316177,-0.0837 0.47625,-0.12745 0.160073,-0.0436 0.410104,-0.0942 0.555625,-0.11245 0.145521,-0.0182 0.336021,-0.0553 0.423333,-0.0825 0.253662,-0.0789 1.849036,-0.20966 2.513542,-0.206 0.334698,0.002 0.897271,0.0325 1.250167,0.0681 l 0.641625,0.0647 -0.260752,-0.41645 c -0.423445,-0.67637 -0.45501,-0.88682 -0.132578,-0.88406 0.296387,0.002 1.157679,0.43615 1.702996,0.85747 0.344773,0.26633 1.045014,0.86473 1.187778,1.01495 0.100299,0.10557 0.207455,0.19238 0.238125,0.19291 0.08149,0.001 0.739204,0.31152 1.167014,0.5502 0.597239,0.33318 1.192017,0.7867 1.615657,1.2318 0.66476,0.69852 0.727456,1.02216 0.284019,1.46605 l -0.24076,0.24101 0.139668,0.22808 c 0.07681,0.12549 0.212852,0.34732 0.302303,0.49299 0.315092,0.51312 0.93046,1.75552 1.193726,2.41012 0.717354,1.78359 0.986843,3.12006 0.987976,4.89968 7.93e-4,1.08355 -0.0602,1.55487 -0.314792,2.4366 -0.516096,1.78736 -1.498504,3.20857 -3.147589,4.55348 -0.247385,0.20177 -0.556948,0.45463 -0.687916,0.56189 -0.654246,0.53597 -2.41962,1.70056 -3.571875,2.35641 -0.896896,0.51048 -2.793048,1.41906 -3.81,1.8257 -0.646806,0.2586 -1.908213,0.68273 -2.38125,0.80066 -0.880481,0.21944 -1.083078,0.25873 -2.003267,0.38878 -1.059032,0.14959 -2.0568079,0.16803 -2.8650679,0.0529 z"
       id="path906"
       inkscape:connector-curvature="0" />
    <path
       style="fill:#ffffff;fill-opacity:1;stroke-width:0.26458332"
       d="m 10.535236,289.89703 c 0.945631,-0.14312 2.838333,-0.68186 3.730625,-1.06194 0.116417,-0.0496 0.318823,-0.12668 0.449792,-0.17129 0.130968,-0.0447 0.333375,-0.1238 0.449791,-0.17592 0.116417,-0.0521 0.366448,-0.15901 0.555625,-0.23757 0.365263,-0.15158 1.893565,-0.89942 2.248959,-1.10043 0.690324,-0.39044 0.900414,-0.51435 1.402291,-0.82702 0.305594,-0.19037 0.579438,-0.36549 0.608542,-0.38916 0.0291,-0.0237 0.255323,-0.19493 0.502708,-0.38059 0.720641,-0.54071 1.146487,-1.05738 1.481958,-1.79795 0.715454,-1.5795 0.604726,-3.98405 -0.302752,-6.57458 -0.233082,-0.66535 -0.10931,-0.58277 -1.152747,-0.76907 -0.34925,-0.0623 -0.849313,-0.15732 -1.11125,-0.21108 -0.8703,-0.17851 -1.552025,-0.22968 -2.630054,-0.19737 -0.640165,0.0192 -1.15941,0.0623 -1.391613,0.11548 -0.203729,0.0467 -0.501386,0.10922 -0.661458,0.13904 -0.32321,0.0601 -0.368533,0.0732 -1.17574,0.33684 -0.777293,0.25393 -1.437206,0.54696 -2.131552,0.94656 -0.423148,0.24351 -1.524762,0.96114 -1.625859,1.05913 -0.03711,0.036 -0.210349,0.17666 -0.384975,0.31257 -0.38353,0.29854 -1.001252,0.88974 -1.447679,1.38558 -1.191413,1.32324 -2.04498,2.93282 -2.313813,4.36327 -0.117464,0.62498 -0.07941,1.73523 0.07761,2.26396 0.241793,0.8142 0.738199,1.61028 1.480524,2.37442 0.465593,0.47927 0.692653,0.58696 1.462527,0.69379 0.274748,0.0382 1.354968,-0.0175 1.878542,-0.0967 z"
       id="path904"
       inkscape:connector-curvature="0" />
  </g>
</svg>
