<?xml version="1.0" encoding="UTF-8" standalone="no"?>
<!-- Created with Inkscape (http://www.inkscape.org/) -->

<svg
   xmlns:dc="http://purl.org/dc/elements/1.1/"
   xmlns:cc="http://creativecommons.org/ns#"
   xmlns:rdf="http://www.w3.org/1999/02/22-rdf-syntax-ns#"
   xmlns:svg="http://www.w3.org/2000/svg"
   xmlns="http://www.w3.org/2000/svg"
   xmlns:sodipodi="http://sodipodi.sourceforge.net/DTD/sodipodi-0.dtd"
   xmlns:inkscape="http://www.inkscape.org/namespaces/inkscape"
   width="36mm"
   height="26mm"
   viewBox="0 0 36 26"
   version="1.1"
   id="svg8"
   inkscape:version="0.92.4 (f8dce91, 2019-08-02)"
   sodipodi:docname="x-icon.svg">
  <defs
     id="defs2" />
  <sodipodi:namedview
     id="base"
     pagecolor="#ffffff"
     bordercolor="#666666"
     borderopacity="1.0"
     inkscape:pageopacity="0.0"
     inkscape:pageshadow="2"
     inkscape:zoom="1.979899"
     inkscape:cx="42.841143"
     inkscape:cy="19.926513"
     inkscape:document-units="mm"
     inkscape:current-layer="layer1"
     showgrid="false"
     inkscape:window-width="1850"
     inkscape:window-height="1016"
     inkscape:window-x="70"
     inkscape:window-y="27"
     inkscape:window-maximized="1" />
  <metadata
     id="metadata5">
    <rdf:RDF>
      <cc:Work
         rdf:about="">
        <dc:format>image/svg+xml</dc:format>
        <dc:type
           rdf:resource="http://purl.org/dc/dcmitype/StillImage" />
        <dc:title></dc:title>
      </cc:Work>
    </rdf:RDF>
  </metadata>
  <g
     inkscape:label="Layer 1"
     inkscape:groupmode="layer"
     id="layer1"
     transform="translate(0,-271)">
    <path
       style="fill:#0e34a0;fill-opacity:1;stroke-width:0.26458332"
       d="m 26.432887,295.6756 c -0.11754,-0.0471 -0.52411,-0.36285 -0.77895,-0.60492 -0.6591,-0.6262 -1.29079,-1.17756 -1.79385,-1.56578 -0.20372,-0.15726 -0.38232,-0.29896 -0.39687,-0.3149 -0.0557,-0.061 -0.49064,-0.38938 -0.91113,-0.68781 -0.24104,-0.17109 -0.46898,-0.33837 -0.50655,-0.3718 -0.0819,-0.0728 -4.23777,-2.80691 -4.26655,-2.80691 -0.011,0 -0.3975,-0.2542 -0.85884,-0.56492 -0.46134,-0.31066 -0.981683,-0.6609 -1.156313,-0.77828 -0.17462,-0.11738 -0.53618,-0.37566 -0.80346,-0.57398 -0.26729,-0.19826 -0.50131,-0.36051 -0.52006,-0.36051 -0.0505,0 -3.442589,1.50296 -4.179809,1.85198 -0.3492505,0.16531 -0.7183405,0.33471 -0.8202105,0.3764 -0.10186,0.0417 -1.03055,0.49643 -2.06375,1.0106 -1.57147,0.782 -2.432719,1.25014 -4.379139,2.38019 -0.0947,0.055 -0.48766,0.31125 -0.87313,0.56937 -0.81295,0.54437 -1.18245997,0.75048 -1.34565997,0.75048 -0.26309,0 -0.35498,-0.43319 -0.20862,-0.98333 0.20941,-0.78718 0.77420997,-1.72872 1.77729997,-2.96291 0.071,-0.0874 0.53517,-0.5645 1.03139,-1.06013 0.96509,-0.96399 1.86975,-1.74386 3.286569,-2.83313 0.51257,-0.3941 2.358,-1.69079 3.08932,-2.17075 l 0.6844905,-0.44918 -0.30336,-0.31888 c -0.9739305,-1.02364 -2.1800605,-2.88033 -2.6846405,-4.13263 -0.47915,-1.18922 -0.67774,-2.13229 -0.64904,-3.0823 0.0172,-0.56964 0.0331,-0.6538 0.17765,-0.94106 0.25656,-0.50978 0.29687,-0.52593 1.41938,-0.56863 0.58216,-0.0221 1.09765,-0.0701 1.30583,-0.12162 0.18917,-0.0468 0.5508305,-0.0987 0.8036805,-0.11542 0.53597,-0.0354 0.75561,0.0425 1.18437,0.42037 0.20499,0.18057 1.0282,1.33679 1.0282,1.44406 0,0.0584 1.201989,1.85912 1.484679,2.22414 0.40298,0.52037 1.32834,1.61064 1.5222,1.79344 l 0.16175,0.1525 0.307453,-0.17533 c 0.1691,-0.0965 0.40271,-0.22756 0.51912,-0.29128 0.11642,-0.0638 0.61648,-0.33757 1.11125,-0.60846 0.49478,-0.27094 1.28059,-0.69163 1.74625,-0.93486 0.94731,-0.49484 6.28544,-3.16562 6.9364,-3.47041 0.23046,-0.1079 0.66905,-0.31342 0.97465,-0.4567 0.30559,-0.14328 0.74612,-0.34976 0.97896,-0.45882 1.10108,-0.51598 2.84933,-1.2218 3.43958,-1.38876 1.48722,-0.42053 1.8898,-0.28461 2.29387,0.77463 0.19045,0.49923 0.41053,0.8545 0.81805,1.32047 0.38515,0.44039 0.48653,0.65285 0.48413,1.01453 -0.005,0.69459 -0.72472,1.47971 -2.44521,2.66591 -0.23963,0.16521 -0.44698,0.30039 -0.46078,0.30039 -0.0138,0 -0.21044,0.11563 -0.43696,0.25695 -1.01522,0.63352 -1.81022,1.04636 -4.97216,2.582 -1.12186,0.54485 -6.56161,2.96672 -6.88411,3.06488 -0.10751,0.0327 0.0528,0.20864 1.5147,1.6615 1.69218,1.68173 2.30098,2.35757 3.18146,3.53179 1.02262,1.36371 1.62555,2.48936 1.98608,3.70788 0.17056,0.57646 0.23979,1.57621 0.13237,1.91162 -0.12656,0.39515 -0.34891,0.52175 -0.68198,0.38832 z"
       id="path65"
       inkscape:connector-curvature="0" />
  </g>
</svg>
